<svg xmlns="http://www.w3.org/2000/svg" xmlns:xlink="http://www.w3.org/1999/xlink" width="56" height="56" viewBox="0 0 56 56">
    <defs>
        <path id="a" d="M50.445 11.316l-9.523 6.819a16.525 16.525 0 0 0-6.347-4.874l3.707-11.24a28.014 28.014 0 0 1 12.163 9.295zm.933 1.329a27.447 27.447 0 0 1 4.542 15.337H44.45a16.181 16.181 0 0 0-2.582-8.527l9.51-6.81zM36.71 1.455l-3.7 11.219a16.597 16.597 0 0 0-5.045-.78c-1.487 0-2.927.195-4.298.56l-3.703-11.23A28.167 28.167 0 0 1 27.965.07c3.054 0 5.994.486 8.745 1.384zm-18.333.29l3.7 11.222a16.52 16.52 0 0 0-7.05 5.144l-9.524-6.82a28.01 28.01 0 0 1 12.874-9.546zM4.57 12.62l9.51 6.81a16.181 16.181 0 0 0-2.598 8.552H.011v-.177A27.447 27.447 0 0 1 4.568 12.62z"/>
    </defs>
    <g fill="none" fill-rule="evenodd">
        <path d="M0-.188h56v56H0z"/>
        <g opacity=".64" transform="translate(0 13.813)">
            <mask id="b" fill="#fff">
                <use xlink:href="#a"/>
            </mask>
            <use fill="#FFF" xlink:href="#a"/>
            <path fill="#E2F2FD" d="M4.178 10.998l11.606 8.294-2.629 10.056h-16.56z" mask="url(#b)"/>
            <path fill="#BBDEFB" d="M19.038.65l4.204 12.875-8.197 5.177-10.867-7.704 7.3-7.346z" mask="url(#b)"/>
            <path fill="#90CAF9" d="M19.585-.622h14.793L37.458.65 33.4 14.027l-10.157-.502L18.836.071z" mask="url(#b)"/>
            <path fill="#64B5F6" d="M37.91.65l8.226 4.577 5.316 5.771-10.967 8.17-7.086-5.141z" mask="url(#b)"/>
            <path fill="#42A5F5" d="M51.591 11.271l5.763 11.911-.458 6.166H43.681l-3.196-10.18z" mask="url(#b)"/>
        </g>
        <path fill="#616161" stroke="#FFF" stroke-width="2" d="M28.328 17.813c.672 0 1.24.5 1.324 1.166l2.811 22.14a4.168 4.168 0 1 1-8.27 0l2.811-22.14a1.335 1.335 0 0 1 1.324-1.167z"/>
    </g>
</svg>
