<svg xmlns="http://www.w3.org/2000/svg" width="32" height="32" viewBox="0 0 32 32">
    <g fill="none" fill-rule="evenodd">
        <path d="M0 0h32v32H0z"/>
        <path fill="#E38939" fill-rule="nonzero" d="M23.4 6.4v19.2c0 1.32-1.08 2.4-2.4 2.4h-9.6C10.08 28 9 26.92 9 25.6V6.4C9 5.08 10.08 4 11.4 4H21c1.32 0 2.4 1.08 2.4 2.4z"/>
        <path fill="#FFF3E0" fill-rule="nonzero" d="M11.4 26.8H21a1.2 1.2 0 0 0 1.2-1.2V6.4A1.2 1.2 0 0 0 21 5.2h-.6a.6.6 0 0 0-.6.6A1.2 1.2 0 0 1 18.6 7h-4.8a1.2 1.2 0 0 1-1.2-1.2.6.6 0 0 0-.6-.6h-.6a1.2 1.2 0 0 0-1.2 1.2v19.2a1.2 1.2 0 0 0 1.2 1.2z"/>
    </g>
</svg>
