<svg xmlns="http://www.w3.org/2000/svg" width="49" height="42" viewBox="0 0 49 42">
    <path fill="#F4511E" fill-rule="evenodd" d="M48.261.473c-14.33 5.707-26.908 15.983-35.575 28.91-1.019 1.5-1.92 3.005-2.822 4.511 3.077-1.572 6.578-2.286 10.001-2.646-.117-.007.829-.137.881-.015-.006.12-.897.312-.78.318-.952.25-1.963.496-2.967.623-.3.104-.598.208-.9.371-.602.268-1.144.538-1.687.809-1.208.654-2.306 1.433-3.349 2.274-1.347 1.065-2.643 2.252-3.88 3.442l-.593 1.223-.006.12c-.003.059-.062.056-.065.115-.065.116-.068.176-.133.292a18229394341140396 18229394341140396 0 0 0-2.734.635c-.653.145-1.303.23-1.956.376-.118-.006-.826.077-.826.077.061-.057.068-.176.13-.232l-.176-.01c.062-.056.065-.116.123-.113L.89 41.55c.401-3.144.74-6.231 1.142-9.375.196-1.483.334-2.969.53-4.451.102-.83.205-1.661.305-2.433.084-.473.352-1.116.023-1.55l-.058-.004.003-.06c.136-.35 2.204-.602 2.558-.643.653-.146 1.91-.618 2.6-.343.804.34.132 3.052.094 3.767-.115 1.068-.233 2.197-.349 3.266 6.118-9.118 14.216-16.82 23.5-22.549 3.885-2.426 7.982-4.423 12.294-6.051 1.2-.475 2.5-.647 3.741-.821.238-.048 1.951-.258.99.17z"/>
</svg>
