<svg xmlns="http://www.w3.org/2000/svg" xmlns:xlink="http://www.w3.org/1999/xlink" width="408" height="80" viewBox="0 0 408 80">
    <defs>
        <linearGradient id="c" x1="0%" y1="50%" y2="50%">
            <stop offset="0%" stop-color="#9CCC65"/>
            <stop offset="100%" stop-color="#43A047"/>
        </linearGradient>
        <rect id="b" width="392" height="64" rx="4"/>
        <filter id="a" width="107.1%" height="143.8%" x="-3.6%" y="-15.6%" filterUnits="objectBoundingBox">
            <feOffset dy="4" in="SourceAlpha" result="shadowOffsetOuter1"/>
            <feGaussianBlur in="shadowOffsetOuter1" result="shadowBlurOuter1" stdDeviation="4"/>
            <feColorMatrix in="shadowBlurOuter1" values="0 0 0 0 0.105882353 0 0 0 0 0.368627451 0 0 0 0 0.125490196 0 0 0 0.16 0"/>
        </filter>
        <filter id="d" width="105.1%" height="131.2%" x="-2.6%" y="-9.4%" filterUnits="objectBoundingBox">
            <feOffset dy="-4" in="SourceAlpha" result="shadowOffsetInner1"/>
            <feComposite in="shadowOffsetInner1" in2="SourceAlpha" k2="-1" k3="1" operator="arithmetic" result="shadowInnerInner1"/>
            <feColorMatrix in="shadowInnerInner1" values="0 0 0 0 0 0 0 0 0 0 0 0 0 0 0 0 0 0 0.16 0"/>
        </filter>
    </defs>
    <g fill="none" fill-rule="evenodd">
        <g fill-rule="nonzero" transform="translate(8 4)">
            <use fill="#000" filter="url(#a)" xlink:href="#b"/>
            <use fill="url(#c)" xlink:href="#b"/>
            <use fill="#000" filter="url(#d)" xlink:href="#b"/>
        </g>
        <path fill="#FFF" fill-rule="nonzero" d="M36 25c-3.324 0-6 2.676-6 6v1c-1.1 0-2 .9-2 2v10c0 1.1.9 2 2 2h12c1.1 0 2-.9 2-2V34c0-1.1-.9-2-2-2v-1c0-3.324-2.676-6-6-6zm0 2c2.276 0 4 1.724 4 4v1h-8v-1c0-2.276 1.724-4 4-4zm0 10c1.1 0 2 .9 2 2s-.9 2-2 2-2-.9-2-2 .9-2 2-2z"/>
        <path d="M24 23h24v24H24z"/>
        <text fill="#FFF" font-family="SFProText-Heavy, SF Pro Text" font-size="14" font-weight="600" transform="translate(8 4)">
            <tspan x="115.098" y="36">DESCUBRA SUAS CHANCES</tspan>
        </text>
    </g>
</svg>
