<?xml version="1.0" encoding="utf-8"?>
<!-- Generator: Adobe Illustrator 21.0.2, SVG Export Plug-In . SVG Version: 6.00 Build 0)  -->
<svg version="1.1" id="Camada_1" xmlns="http://www.w3.org/2000/svg" xmlns:xlink="http://www.w3.org/1999/xlink" x="0px" y="0px"
	 viewBox="0 0 43.5 49" style="enable-background:new 0 0 43.5 49;" xml:space="preserve">
<style type="text/css">
	.st0{fill:#FFFFFF;}
</style>
<path class="st0" d="M21.8,14c-3.3,0-6,2.7-6,6v1c-1.1,0-2,0.9-2,2v10c0,1.1,0.9,2,2,2h12c1.1,0,2-0.9,2-2V23c0-1.1-0.9-2-2-2v-1
	C27.8,16.7,25.1,14,21.8,14z M21.8,16c2.3,0,4,1.7,4,4v1h-8v-1C17.8,17.7,19.5,16,21.8,16z M21.8,26c1.1,0,2,0.9,2,2s-0.9,2-2,2
	s-2-0.9-2-2S20.7,26,21.8,26z"/>
</svg>
