<?xml version="1.0" encoding="utf-8"?>
<!-- Generator: Adobe Illustrator 21.0.2, SVG Export Plug-In . SVG Version: 6.00 Build 0)  -->
<svg version="1.1" id="Camada_1" xmlns="http://www.w3.org/2000/svg" xmlns:xlink="http://www.w3.org/1999/xlink" x="0px" y="0px"
	 viewBox="0 0 134 18" style="enable-background:new 0 0 134 18;" xml:space="preserve">
<style type="text/css">
	.st0{fill:#1E88E5;}
</style>
<g>
	<path class="st0" d="M84.2,7.6v4.2H83V6.2h1.5l2.3,4.2V6.2H88v5.7h-1.5L84.2,7.6L84.2,7.6z M78.8,7.1c-0.5,0-1,0.2-1.2,0.5
		c-0.2,0.3-0.3,0.7-0.3,1.4c0,0.6,0.1,1.2,0.4,1.4c0.3,0.3,0.6,0.5,1.2,0.5s0.9-0.2,1.1-0.5c0.3-0.3,0.4-0.8,0.4-1.4
		s-0.1-1.1-0.3-1.4C79.8,7.3,79.5,7.1,78.8,7.1L78.8,7.1z M78.8,6.2c0.5,0,1.1,0.1,1.5,0.3c0.5,0.2,0.9,0.6,1.1,1.2
		c0.2,0.5,0.3,0.9,0.3,1.4s-0.1,1.1-0.3,1.4c-0.2,0.5-0.6,0.8-1.2,1.1c-0.5,0.2-0.9,0.2-1.4,0.2c-0.6,0-1.2-0.1-1.7-0.4
		c-0.5-0.2-0.7-0.5-0.9-0.9C76.1,10.2,76,9.6,76,9c0-1.1,0.3-1.8,0.8-2.3C77.3,6.4,77.9,6.2,78.8,6.2L78.8,6.2z M72.5,8.5h2.9v3.3
		h-2.6c-0.5,0-0.8,0-1.1-0.1s-0.5-0.2-0.7-0.4c-0.6-0.5-0.9-1.3-0.9-2.3c0-0.7,0.2-1.4,0.5-1.8c0.2-0.4,0.5-0.6,0.9-0.8
		c0.3-0.2,0.8-0.3,1.4-0.3h2.5v1.1H73c-0.5,0-0.9,0.1-1.2,0.3c-0.3,0.3-0.5,0.7-0.5,1.4c0,0.3,0,0.6,0.1,0.9s0.2,0.5,0.3,0.6
		c0.1,0.1,0.3,0.2,0.5,0.3c0.3,0.1,0.5,0.1,0.7,0.1H74V9.5h-1.6L72.5,8.5L72.5,8.5z M69.1,6.2v1h-1.5c-0.5,0-0.7,0-0.9,0.1
		c-0.2,0.1-0.4,0.2-0.5,0.3c0,0.1-0.1,0.3-0.1,0.4c0,0.2-0.1,0.4-0.1,0.5h3.1v1H66c0,0.5,0.2,0.8,0.5,1c0.2,0.2,0.6,0.3,1.2,0.3h1.4
		v1.1h-1.5c-0.4,0-0.7,0-1.1-0.1c-0.5-0.1-0.9-0.3-1.2-0.6c-0.5-0.5-0.6-1.3-0.6-2.1c0-1,0.3-1.8,0.9-2.3c0.2-0.2,0.5-0.3,0.6-0.4
		c0.2-0.1,0.5-0.1,0.9-0.1L69.1,6.2L69.1,6.2z M59.6,8.6h1.7c0.3,0,0.5,0,0.6-0.1c0.2-0.1,0.3-0.4,0.3-0.6c0-0.4-0.2-0.5-0.5-0.6
		c-0.2,0-0.3-0.1-0.5-0.1h-1.7V8.6L59.6,8.6z M59.6,9.7v2.2h-1.3V6.2h2.9c0.8,0,1.4,0.1,1.7,0.3c0.2,0.1,0.4,0.3,0.5,0.5
		s0.2,0.5,0.2,0.7c0,0.5-0.1,0.9-0.5,1.3c-0.2,0.2-0.5,0.3-0.7,0.5c0.2,0.1,0.4,0.1,0.5,0.3c0.1,0.1,0.3,0.3,0.3,0.4
		c0.1,0.1,0.1,0.3,0.2,0.4c0,0.2,0.1,0.4,0.1,0.5c0,0.5,0.1,0.7,0.2,0.8h-1.4c0-0.1-0.1-0.5-0.1-0.8s-0.1-0.6-0.2-0.7
		c-0.1-0.2-0.2-0.3-0.5-0.5c-0.2-0.1-0.5-0.2-1-0.2C60.7,9.7,59.6,9.7,59.6,9.7z M54.6,6.2c0.5,0,1.1,0.1,1.5,0.3
		c0.5,0.2,0.9,0.6,1.1,1.2c0.2,0.5,0.3,0.9,0.3,1.4s-0.1,1.1-0.3,1.4c-0.2,0.5-0.6,0.8-1.2,1.1c-0.5,0.2-0.9,0.2-1.4,0.2
		c-0.6,0-1.2-0.1-1.7-0.4c-0.5-0.2-0.7-0.5-0.9-0.9c-0.2-0.5-0.3-0.9-0.3-1.5c0-1.1,0.3-1.8,0.8-2.3C53.1,6.4,53.7,6.2,54.6,6.2
		L54.6,6.2z M54.6,7.1c-0.5,0-1,0.2-1.2,0.5c-0.2,0.3-0.3,0.7-0.3,1.4c0,0.6,0.1,1.2,0.4,1.4c0.3,0.3,0.6,0.5,1.2,0.5
		s0.9-0.2,1.1-0.5c0.3-0.3,0.4-0.8,0.4-1.4s-0.1-1.1-0.3-1.4C55.5,7.3,55.2,7.1,54.6,7.1L54.6,7.1z M50.5,8.5v1h-3.3v2.3H46V8.9
		c0-0.8,0.1-1.4,0.2-1.6c0.2-0.4,0.5-0.6,0.8-0.8c0.5-0.2,0.9-0.3,1.5-0.3h1.9v1h-1.7c-0.5,0-0.9,0.1-1.1,0.1
		c-0.3,0.1-0.5,0.5-0.5,0.9v0.3C47.2,8.5,50.5,8.5,50.5,8.5z"/>
</g>
</svg>
