<?xml version="1.0" encoding="utf-8"?>
<!-- Generator: Adobe Illustrator 21.0.2, SVG Export Plug-In . SVG Version: 6.00 Build 0)  -->
<svg version="1.1" id="Camada_1" xmlns="http://www.w3.org/2000/svg" xmlns:xlink="http://www.w3.org/1999/xlink" x="0px" y="0px"
	 viewBox="0 0 134 18" style="enable-background:new 0 0 134 18;" xml:space="preserve">
<style type="text/css">
	.st0{fill:#1E88E5;}
</style>
<g>
	<path class="st0" d="M121.3,4.8V18h-3.7V0h5l7.3,13.4V0h3.7v18h-4.8L121.3,4.8L121.3,4.8z M104.6,3c-1.8,0-3.1,0.6-3.8,1.7
		C100.1,5.6,99.8,7,99.8,9c0,2.1,0.4,3.6,1.2,4.6c0.8,1,2,1.4,3.6,1.4c1.6,0,2.8-0.5,3.5-1.5c0.8-1,1.1-2.5,1.1-4.5
		c0-1.9-0.3-3.3-0.9-4.3C107.6,3.6,106.4,3,104.6,3L104.6,3z M104.5,0c1.8,0,3.4,0.3,4.8,0.9c1.6,0.7,2.8,1.9,3.4,3.6
		c0.5,1.3,0.8,2.9,0.8,4.7c0,1.8-0.3,3.4-0.9,4.7c-0.7,1.5-2,2.7-3.6,3.3c-1.3,0.5-2.8,0.7-4.2,0.7c-2,0-3.8-0.4-5.4-1.1
		c-1.3-0.6-2.3-1.7-2.9-2.9c-0.7-1.3-1-3-1-4.9c0-3.4,0.9-5.8,2.6-7.2C99.6,0.6,101.7,0,104.5,0L104.5,0z M84.4,7.3h9.2V18h-8.3
		c-1.5,0-2.6-0.1-3.4-0.3c-0.8-0.2-1.6-0.6-2.3-1.1c-2-1.5-2.9-4-2.9-7.5c0-2.3,0.5-4.3,1.4-5.8c0.7-1.1,1.6-2,2.8-2.5
		C81.9,0.3,83.5,0,85.4,0h8.1v3.2h-7.7c-1.7,0-2.9,0.3-3.6,1c-0.9,0.8-1.3,2.3-1.3,4.5c0,1,0.1,2,0.4,3c0.2,0.9,0.5,1.5,0.9,2
		c0.4,0.4,0.9,0.7,1.5,0.9c0.8,0.2,1.5,0.3,2.3,0.3h3.6v-4.3h-5.2L84.4,7.3C84.4,7.3,84.4,7.3,84.4,7.3z M73.5,0v3.2h-4.8
		c-1.3,0-2.2,0.1-2.8,0.3c-0.6,0.2-1.1,0.5-1.4,1c-0.2,0.3-0.4,0.7-0.5,1.1c-0.1,0.6-0.2,1.2-0.2,1.8h9.8v3.2h-9.8
		c0.1,1.6,0.6,2.6,1.3,3.2c0.7,0.6,2,0.9,3.8,0.9h4.7V18h-4.8c-1.2,0-2.3-0.1-3.5-0.3c-1.6-0.3-2.8-1-3.7-2.1c-1.3-1.7-2-3.9-2-6.7
		c0-3.1,0.9-5.6,2.8-7.3c0.6-0.6,1.3-1,2-1.2C65.1,0.1,66.1,0,67.3,0C67.3,0,73.5,0,73.5,0z M43.5,7.9H49c0.9,0,1.6-0.1,2-0.4
		c0.6-0.4,0.9-1.1,0.9-2.1c0-1.1-0.5-1.8-1.3-2.1c-0.5-0.1-1-0.2-1.5-0.2h-5.5V7.9z M43.5,11.2V18h-4V0h9.1c2.6,0,4.4,0.3,5.4,1
		c0.7,0.4,1.2,1,1.6,1.7c0.4,0.7,0.6,1.5,0.6,2.3c0,1.7-0.4,3-1.3,4c-0.6,0.6-1.4,1-2.2,1.3c0.6,0.2,1.1,0.4,1.6,0.8
		c0.4,0.3,0.8,0.8,1,1.2c0.2,0.4,0.4,0.8,0.5,1.2c0.1,0.6,0.2,1.2,0.2,1.8c0.1,1.3,0.3,2.2,0.5,2.7h-4.4c-0.1-0.4-0.3-1.3-0.4-2.6
		c-0.1-1.1-0.3-1.9-0.6-2.4c-0.3-0.6-0.7-1-1.3-1.3c-0.7-0.4-1.8-0.6-3.1-0.6C46.7,11.2,43.5,11.2,43.5,11.2z M27.5,0
		c1.8,0,3.4,0.3,4.8,0.9c1.6,0.7,2.8,2,3.4,3.6c0.5,1.3,0.8,2.9,0.8,4.7c0,1.8-0.3,3.4-1,4.7c-0.7,1.5-2,2.7-3.6,3.3
		c-1.3,0.5-2.8,0.7-4.2,0.7c-2.1,0-3.8-0.4-5.4-1.1c-1.3-0.6-2.3-1.7-2.9-2.9c-0.7-1.3-1-3-1-4.9c0-3.4,0.9-5.8,2.6-7.2
		C22.6,0.6,24.7,0,27.5,0L27.5,0z M27.6,3c-1.8,0-3.1,0.6-3.8,1.7C23.1,5.6,22.8,7,22.8,9c0,2.1,0.4,3.6,1.1,4.6
		c0.8,1,2,1.4,3.6,1.4c1.6,0,2.8-0.5,3.5-1.5c0.8-1,1.1-2.5,1.1-4.5c0-1.9-0.3-3.3-0.9-4.3C30.6,3.6,29.4,3,27.6,3
		C27.6,3,27.6,3,27.6,3z M14.5,7.4v3.2H4.2V18H0.5V8.6c0-2.7,0.3-4.5,0.7-5.3c0.5-1.1,1.4-2,2.5-2.5C5,0.3,6.5,0,8.5,0h6v3.2H9
		c-1.7,0-2.8,0.2-3.3,0.4C4.7,4,4.2,5,4.2,6.4v1H14.5z"/>
</g>
</svg>
