<?xml version="1.0" encoding="utf-8"?>
<!-- Generator: Adobe Illustrator 21.0.2, SVG Export Plug-In . SVG Version: 6.00 Build 0)  -->
<svg version="1.1" id="Camada_1" xmlns="http://www.w3.org/2000/svg" xmlns:xlink="http://www.w3.org/1999/xlink" x="0px" y="0px"
	 viewBox="0 0 134 18" style="enable-background:new 0 0 134 18;" xml:space="preserve">
<style type="text/css">
	.st0{fill:#1E88E5;}
</style>
<g>
	<path class="st0" d="M86,7.5v4.6h-1.3V5.9h1.7l2.5,4.7V5.9h1.3v6.3h-1.7L86,7.5L86,7.5z M80.1,6.9c-0.6,0-1.1,0.2-1.3,0.6
		c-0.2,0.3-0.3,0.8-0.3,1.5c0,0.7,0.1,1.3,0.4,1.6c0.3,0.3,0.7,0.5,1.3,0.5c0.6,0,1-0.2,1.2-0.5c0.3-0.3,0.4-0.9,0.4-1.6
		c0-0.7-0.1-1.2-0.3-1.5C81.2,7.1,80.8,6.9,80.1,6.9L80.1,6.9z M80.1,5.9c0.6,0,1.2,0.1,1.7,0.3c0.6,0.2,1,0.7,1.2,1.3
		c0.2,0.5,0.3,1,0.3,1.6c0,0.6-0.1,1.2-0.3,1.6c-0.2,0.5-0.7,0.9-1.3,1.2c-0.5,0.2-1,0.2-1.5,0.2c-0.7,0-1.3-0.1-1.9-0.4
		c-0.5-0.2-0.8-0.6-1-1C77.1,10.3,77,9.7,77,9c0-1.2,0.3-2,0.9-2.5C78.4,6.1,79.1,5.9,80.1,5.9L80.1,5.9z M73.1,8.4h3.2v3.7h-2.9
		c-0.5,0-0.9,0-1.2-0.1c-0.3-0.1-0.6-0.2-0.8-0.4c-0.7-0.5-1-1.4-1-2.6c0-0.8,0.2-1.5,0.5-2c0.2-0.4,0.6-0.7,1-0.9
		c0.3-0.2,0.9-0.3,1.6-0.3h2.8V7h-2.7c-0.6,0-1,0.1-1.3,0.3c-0.3,0.3-0.5,0.8-0.5,1.6c0,0.3,0,0.7,0.1,1c0.1,0.3,0.2,0.5,0.3,0.7
		c0.1,0.1,0.3,0.2,0.5,0.3c0.3,0.1,0.5,0.1,0.8,0.1h1.3V9.6h-1.8L73.1,8.4L73.1,8.4z M69.3,5.9V7h-1.7c-0.5,0-0.8,0-1,0.1
		c-0.2,0.1-0.4,0.2-0.5,0.3C66.1,7.5,66,7.7,66,7.8c0,0.2-0.1,0.4-0.1,0.6h3.4v1.1h-3.4c0,0.6,0.2,0.9,0.5,1.1
		c0.2,0.2,0.7,0.3,1.3,0.3h1.6v1.2h-1.7c-0.4,0-0.8,0-1.2-0.1c-0.6-0.1-1-0.3-1.3-0.7c-0.5-0.6-0.7-1.4-0.7-2.3c0-1.1,0.3-2,1-2.5
		c0.2-0.2,0.5-0.3,0.7-0.4c0.2-0.1,0.6-0.1,1-0.1H69.3z M58.8,8.6h1.9c0.3,0,0.6,0,0.7-0.1c0.2-0.1,0.3-0.4,0.3-0.7
		c0-0.4-0.2-0.6-0.5-0.7c-0.2,0-0.3-0.1-0.5-0.1h-1.9L58.8,8.6L58.8,8.6z M58.8,9.8v2.4h-1.4V5.9h3.2c0.9,0,1.5,0.1,1.9,0.3
		c0.2,0.1,0.4,0.3,0.6,0.6s0.2,0.5,0.2,0.8c0,0.6-0.1,1-0.5,1.4c-0.2,0.2-0.5,0.3-0.8,0.5c0.2,0.1,0.4,0.1,0.6,0.3
		c0.1,0.1,0.3,0.3,0.3,0.4c0.1,0.1,0.1,0.3,0.2,0.4c0,0.2,0.1,0.4,0.1,0.6c0,0.5,0.1,0.8,0.2,0.9h-1.5c0-0.1-0.1-0.5-0.1-0.9
		c0-0.4-0.1-0.7-0.2-0.8c-0.1-0.2-0.2-0.3-0.5-0.5c-0.2-0.1-0.6-0.2-1.1-0.2C60,9.8,58.8,9.8,58.8,9.8z M53.3,5.9
		c0.6,0,1.2,0.1,1.7,0.3c0.6,0.2,1,0.7,1.2,1.3c0.2,0.5,0.3,1,0.3,1.6c0,0.6-0.1,1.2-0.3,1.6c-0.2,0.5-0.7,0.9-1.3,1.2
		c-0.5,0.2-1,0.2-1.5,0.2c-0.7,0-1.3-0.1-1.9-0.4c-0.5-0.2-0.8-0.6-1-1c-0.2-0.5-0.3-1-0.3-1.7c0-1.2,0.3-2,0.9-2.5
		C51.6,6.1,52.3,5.9,53.3,5.9L53.3,5.9z M53.3,6.9c-0.6,0-1.1,0.2-1.3,0.6c-0.2,0.3-0.3,0.8-0.3,1.5c0,0.7,0.1,1.3,0.4,1.6
		c0.3,0.3,0.7,0.5,1.3,0.5c0.6,0,1-0.2,1.2-0.5c0.3-0.3,0.4-0.9,0.4-1.6c0-0.7-0.1-1.2-0.3-1.5C54.3,7.1,53.9,6.9,53.3,6.9L53.3,6.9
		z M48.7,8.4v1.1h-3.6v2.6h-1.3V8.9c0-0.9,0.1-1.6,0.2-1.8c0.2-0.4,0.5-0.7,0.9-0.9c0.5-0.2,1-0.3,1.7-0.3h2.1V7h-1.9
		c-0.6,0-1,0.1-1.2,0.1c-0.3,0.1-0.5,0.5-0.5,1v0.3H48.7z"/>
</g>
</svg>
