<svg xmlns="http://www.w3.org/2000/svg" width="38" height="12" viewBox="0 0 38 12">
    <g fill="#1A1F71" fill-rule="nonzero">
        <path d="M16.45 11.814h-3.074L15.299.21h3.075zM27.6.494A7.745 7.745 0 0 0 24.84 0c-3.037 0-5.176 1.58-5.189 3.839-.025 1.667 1.531 2.592 2.695 3.148 1.19.568 1.595.939 1.595 1.445-.012.777-.962 1.135-1.847 1.135-1.228 0-1.886-.184-2.886-.617l-.405-.185-.43 2.605c.721.32 2.05.605 3.43.617 3.227 0 5.328-1.555 5.352-3.963.013-1.32-.81-2.333-2.58-3.16-1.077-.53-1.735-.889-1.735-1.432.012-.494.557-1 1.771-1 1-.025 1.734.21 2.29.445l.279.123.418-2.506zM31.687 7.703c.253-.666 1.227-3.246 1.227-3.246-.012.024.253-.68.405-1.111l.215 1s.582 2.777.709 3.357h-2.556zM35.483.21h-2.379c-.734 0-1.29.21-1.607.963l-4.568 10.641h3.226l.646-1.74h3.948c.089.407.367 1.74.367 1.74h2.848L35.483.21zM3.232 1.72A12.716 12.716 0 0 0 0 .444L.05.21H5c.67.025 1.214.235 1.391.976l1.076 5.331v.001l.33 1.605L10.806.21h3.252L9.225 11.802H5.973L3.232 1.719z"/>
    </g>
</svg>
